<?xml version="1.0" encoding="UTF-8"?>
<svg xmlns="http://www.w3.org/2000/svg" xmlns:xlink="http://www.w3.org/1999/xlink" width="256pt" height="256pt" viewBox="0 0 256 256" version="1.1">
<g id="surface1">
<path style=" stroke:none;fill-rule:nonzero;fill:rgb(8.627451%,30.980392%,52.54902%);fill-opacity:1;" d="M 127.753906 0.242188 C 93.386719 0.242188 61.808594 13.339844 37.453125 37.695312 C 13.097656 62.050781 0 93.628906 0 128 C 0 162.371094 13.097656 193.945312 37.453125 218.300781 C 57.90625 238.753906 83.46875 251.269531 112.398438 254.992188 C 123.757812 256.453125 141.171875 255.714844 153.585938 253.238281 C 198.277344 244.335938 236.460938 209.71875 249.839844 165.976562 C 263.878906 120.082031 251.835938 71.472656 218.058594 37.695312 C 193.703125 13.339844 162.125 0.242188 127.753906 0.242188 Z M 126.59375 10.261719 C 145.082031 10.09375 163.558594 14.28125 180.398438 22.71875 C 203.476562 34.28125 221.472656 52.277344 233.035156 75.359375 C 249.65625 108.53125 249.65625 147.464844 233.035156 180.636719 C 227.238281 192.214844 221.460938 200.351562 212.257812 209.910156 C 192.785156 230.140625 167.003906 242.472656 138.328125 245.273438 C 116.941406 247.363281 94.871094 243.175781 75.117188 233.277344 C 63.539062 227.476562 55.398438 221.703125 45.839844 212.5 C 8.96875 177.003906 -0.527344 121.269531 22.476562 75.359375 C 36.300781 47.761719 60.054688 26.882812 89.140625 16.757812 C 101.285156 12.53125 113.941406 10.378906 126.59375 10.261719 Z M 126.59375 10.261719 "/>
<path style=" stroke:none;fill-rule:nonzero;fill:rgb(8.627451%,30.980392%,52.54902%);fill-opacity:1;" d="M 219.804688 45.703125 L 216.921875 41.386719 L 135.269531 118.824219 C 134.199219 117.898438 133.089844 117.050781 131.945312 116.265625 L 142.421875 98.128906 L 137.753906 95.433594 L 127.285156 113.570312 C 126.019531 112.960938 124.722656 112.421875 123.410156 111.960938 L 133.179688 75.496094 L 127.984375 74.101562 L 118.207031 110.570312 C 116.832031 110.308594 115.441406 110.132812 114.050781 110.03125 L 114.050781 89.082031 L 108.660156 89.082031 L 108.660156 110.03125 C 107.265625 110.132812 105.886719 110.308594 104.503906 110.570312 L 94.734375 74.105469 L 89.53125 75.496094 L 99.296875 111.960938 C 97.984375 112.417969 96.691406 112.957031 95.425781 113.570312 L 84.957031 95.433594 L 80.285156 98.128906 L 90.765625 116.269531 C 89.617188 117.046875 88.507812 117.898438 87.4375 118.828125 L 60.738281 92.121094 L 56.921875 95.929688 L 83.632812 122.632812 C 82.707031 123.703125 81.851562 124.808594 81.074219 125.957031 L 62.9375 115.480469 L 60.242188 120.148438 L 78.378906 130.617188 C 77.765625 131.882812 77.21875 133.175781 76.761719 134.488281 L 40.304688 124.71875 L 38.910156 129.925781 L 75.378906 139.695312 C 75.117188 141.066406 74.941406 142.460938 74.835938 143.851562 L 53.886719 143.851562 L 53.886719 149.238281 L 74.835938 149.238281 C 74.941406 150.632812 75.117188 152.023438 75.378906 153.394531 L 38.910156 163.175781 L 40.304688 168.371094 L 76.761719 158.601562 C 77.222656 159.914062 77.765625 161.210938 78.378906 162.472656 L 60.242188 172.945312 L 62.9375 177.613281 L 81.074219 167.144531 C 81.851562 168.28125 82.707031 169.390625 83.632812 170.460938 L 58.925781 195.167969 L 62.730469 198.980469 L 87.449219 174.265625 C 88.507812 175.195312 89.617188 176.046875 90.765625 176.824219 L 80.285156 194.960938 L 84.957031 197.65625 L 95.425781 179.527344 C 96.691406 180.132812 97.984375 180.679688 99.296875 181.136719 L 89.53125 217.59375 L 94.734375 218.992188 L 104.503906 182.523438 C 105.875 182.777344 107.265625 182.953125 108.660156 183.0625 L 108.660156 204.011719 L 114.050781 204.011719 L 114.050781 183.0625 C 115.441406 182.953125 116.832031 182.777344 118.207031 182.515625 L 127.972656 218.996094 L 133.179688 217.59375 L 123.410156 181.136719 C 124.722656 180.679688 126.019531 180.136719 127.285156 179.523438 L 137.753906 197.65625 L 142.421875 194.964844 L 131.945312 176.824219 C 133.09375 176.046875 134.199219 175.195312 135.269531 174.265625 L 161.972656 200.976562 L 165.785156 197.160156 L 139.074219 170.464844 C 140 169.394531 140.855469 168.285156 141.636719 167.144531 L 159.773438 177.617188 L 162.46875 172.949219 L 144.332031 162.476562 C 144.945312 161.210938 145.488281 159.914062 145.945312 158.609375 L 182.40625 168.371094 L 183.804688 163.171875 L 147.335938 153.398438 C 147.589844 152.023438 147.765625 150.632812 147.871094 149.242188 L 168.820312 149.242188 L 168.820312 143.851562 L 147.871094 143.851562 C 147.765625 142.460938 147.589844 141.074219 147.324219 139.695312 L 183.796875 129.921875 L 182.402344 124.722656 L 145.945312 134.492188 C 145.476562 133.175781 144.941406 131.886719 144.328125 130.617188 L 162.464844 120.148438 L 159.769531 115.484375 L 141.632812 125.957031 C 140.855469 124.8125 140 123.703125 139.074219 122.636719 Z M 219.804688 45.703125 "/>
</g>
</svg>
